<svg width="237" height="73" viewBox="0 0 237 73" fill="none" xmlns="http://www.w3.org/2000/svg">
<g filter="url(#filter0_d_1_8)">
<path d="M4 10C4 4.47715 8.47715 0 14 0H233V55C233 60.5228 228.523 65 223 65H4V10Z" fill="#34D399"/>
</g>
<path d="M65.9591 14.96C67.0791 14.96 68.1057 15.08 69.0391 15.32C69.9724 15.5333 70.6924 15.7467 71.1991 15.96L70.0391 20.72C69.5057 20.48 68.9191 20.3067 68.2791 20.2C67.6657 20.0667 67.0924 20 66.5591 20C65.8391 20 65.2257 20.1067 64.7191 20.32C64.2391 20.5067 63.8524 20.7733 63.5591 21.12C63.2924 21.4667 63.0924 21.88 62.9591 22.36C62.8524 22.84 62.7991 23.36 62.7991 23.92V24.96H70.1591V29.92H62.7991V46H56.8391V23.84C56.8391 21.12 57.5991 18.96 59.1191 17.36C60.6657 15.76 62.9457 14.96 65.9591 14.96ZM72.1838 53.4C71.8104 53.4 71.2637 53.36 70.5437 53.28C69.7971 53.2 69.1037 53.0533 68.4637 52.84L69.2637 48C69.6637 48.1333 70.0371 48.2267 70.3837 48.28C70.7037 48.3333 71.1171 48.36 71.6238 48.36C72.5571 48.36 73.2104 48.08 73.5838 47.52C73.9571 46.96 74.1438 46.1467 74.1438 45.08V24.96H80.1038V45.24C80.1038 48.0133 79.4238 50.0667 78.0638 51.4C76.7038 52.7333 74.7438 53.4 72.1838 53.4ZM80.6638 18.88C80.6638 19.9733 80.3038 20.84 79.5838 21.48C78.8904 22.0933 78.0638 22.4 77.1038 22.4C76.1438 22.4 75.3038 22.0933 74.5838 21.48C73.8904 20.84 73.5438 19.9733 73.5438 18.88C73.5438 17.7867 73.8904 16.9333 74.5838 16.32C75.3038 15.68 76.1438 15.36 77.1038 15.36C78.0638 15.36 78.8904 15.68 79.5838 16.32C80.3038 16.9333 80.6638 17.7867 80.6638 18.88ZM99.1863 35.64C99.1863 33.8 98.7729 32.3333 97.9463 31.24C97.1196 30.12 95.8929 29.56 94.2663 29.56C93.7329 29.56 93.2396 29.5867 92.7863 29.64C92.3329 29.6667 91.9596 29.7067 91.6663 29.76V40.52C92.0396 40.76 92.5196 40.96 93.1063 41.12C93.7196 41.28 94.3329 41.36 94.9463 41.36C97.7729 41.36 99.1863 39.4533 99.1863 35.64ZM105.266 35.48C105.266 37.1067 105.066 38.5867 104.666 39.92C104.266 41.2533 103.68 42.4 102.906 43.36C102.133 44.32 101.173 45.0667 100.026 45.6C98.8796 46.1333 97.5596 46.4 96.0663 46.4C95.2396 46.4 94.4663 46.32 93.7463 46.16C93.0263 46 92.3329 45.7733 91.6663 45.48V53.4H85.7063V25.68C86.2396 25.52 86.8529 25.3733 87.5463 25.24C88.2396 25.08 88.9596 24.9467 89.7063 24.84C90.4796 24.7333 91.2529 24.6533 92.0263 24.6C92.8263 24.52 93.5863 24.48 94.3063 24.48C96.0396 24.48 97.5863 24.7467 98.9463 25.28C100.306 25.7867 101.453 26.52 102.386 27.48C103.32 28.4133 104.026 29.56 104.506 30.92C105.013 32.28 105.266 33.8 105.266 35.48ZM114.476 42.84C114.476 44.04 114.089 44.96 113.316 45.6C112.569 46.2133 111.716 46.52 110.756 46.52C109.796 46.52 108.929 46.2133 108.156 45.6C107.409 44.96 107.036 44.04 107.036 42.84C107.036 41.64 107.409 40.7333 108.156 40.12C108.929 39.48 109.796 39.16 110.756 39.16C111.716 39.16 112.569 39.48 113.316 40.12C114.089 40.7333 114.476 41.64 114.476 42.84ZM122.349 35.32C122.349 37.16 122.762 38.64 123.589 39.76C124.415 40.88 125.642 41.44 127.269 41.44C127.802 41.44 128.295 41.4267 128.749 41.4C129.202 41.3467 129.575 41.2933 129.869 41.24V30.4C129.495 30.16 129.002 29.96 128.389 29.8C127.802 29.64 127.202 29.56 126.589 29.56C123.762 29.56 122.349 31.48 122.349 35.32ZM135.829 45.32C135.295 45.48 134.682 45.64 133.989 45.8C133.295 45.9333 132.562 46.0533 131.789 46.16C131.042 46.2667 130.269 46.3467 129.469 46.4C128.695 46.48 127.949 46.52 127.229 46.52C125.495 46.52 123.949 46.2667 122.589 45.76C121.229 45.2533 120.082 44.5333 119.149 43.6C118.215 42.64 117.495 41.4933 116.989 40.16C116.509 38.8 116.269 37.28 116.269 35.6C116.269 33.8933 116.482 32.36 116.909 31C117.335 29.6133 117.949 28.44 118.749 27.48C119.549 26.52 120.522 25.7867 121.669 25.28C122.842 24.7733 124.175 24.52 125.669 24.52C126.495 24.52 127.229 24.6 127.869 24.76C128.535 24.92 129.202 25.1467 129.869 25.44V15.92L135.829 14.96V45.32ZM140.409 35.64C140.409 33.7733 140.689 32.1467 141.249 30.76C141.836 29.3467 142.596 28.1733 143.529 27.24C144.463 26.3067 145.529 25.6 146.729 25.12C147.956 24.64 149.209 24.4 150.489 24.4C153.476 24.4 155.836 25.32 157.569 27.16C159.303 28.9733 160.169 31.6533 160.169 35.2C160.169 35.5467 160.156 35.9333 160.129 36.36C160.103 36.76 160.076 37.12 160.049 37.44H146.529C146.663 38.6667 147.236 39.64 148.249 40.36C149.263 41.08 150.623 41.44 152.329 41.44C153.423 41.44 154.489 41.3467 155.529 41.16C156.596 40.9467 157.463 40.6933 158.129 40.4L158.929 45.24C158.609 45.4 158.183 45.56 157.649 45.72C157.116 45.88 156.516 46.0133 155.849 46.12C155.209 46.2533 154.516 46.36 153.769 46.44C153.023 46.52 152.276 46.56 151.529 46.56C149.636 46.56 147.983 46.28 146.569 45.72C145.183 45.16 144.023 44.4 143.089 43.44C142.183 42.4533 141.503 41.2933 141.049 39.96C140.623 38.6267 140.409 37.1867 140.409 35.64ZM154.409 33.36C154.383 32.8533 154.289 32.36 154.129 31.88C153.996 31.4 153.769 30.9733 153.449 30.6C153.156 30.2267 152.769 29.92 152.289 29.68C151.836 29.44 151.263 29.32 150.569 29.32C149.903 29.32 149.329 29.44 148.849 29.68C148.369 29.8933 147.969 30.1867 147.649 30.56C147.329 30.9333 147.076 31.3733 146.889 31.88C146.729 32.36 146.609 32.8533 146.529 33.36H154.409ZM170.489 46C169.129 43.3333 167.742 40.2133 166.329 36.64C164.942 33.0667 163.622 29.1733 162.369 24.96H168.689C168.955 26 169.262 27.1333 169.609 28.36C169.982 29.56 170.355 30.7867 170.729 32.04C171.129 33.2667 171.515 34.4667 171.889 35.64C172.289 36.8133 172.675 37.88 173.049 38.84C173.395 37.88 173.769 36.8133 174.169 35.64C174.569 34.4667 174.955 33.2667 175.329 32.04C175.729 30.7867 176.102 29.56 176.449 28.36C176.822 27.1333 177.142 26 177.409 24.96H183.569C182.315 29.1733 180.982 33.0667 179.569 36.64C178.182 40.2133 176.809 43.3333 175.449 46H170.489Z" fill="white"/>
<defs>
<filter id="filter0_d_1_8" x="0" y="0" width="237" height="73" filterUnits="userSpaceOnUse" color-interpolation-filters="sRGB">
<feFlood flood-opacity="0" result="BackgroundImageFix"/>
<feColorMatrix in="SourceAlpha" type="matrix" values="0 0 0 0 0 0 0 0 0 0 0 0 0 0 0 0 0 0 127 0" result="hardAlpha"/>
<feOffset dy="4"/>
<feGaussianBlur stdDeviation="2"/>
<feComposite in2="hardAlpha" operator="out"/>
<feColorMatrix type="matrix" values="0 0 0 0 0 0 0 0 0 0 0 0 0 0 0 0 0 0 0.25 0"/>
<feBlend mode="normal" in2="BackgroundImageFix" result="effect1_dropShadow_1_8"/>
<feBlend mode="normal" in="SourceGraphic" in2="effect1_dropShadow_1_8" result="shape"/>
</filter>
</defs>
</svg>
